<mxfile host="65bd71144e">
    <diagram id="mQZfA_MfIRocIR5MCdBb" name="第 1 页">
        <mxGraphModel dx="1006" dy="785" grid="1" gridSize="10" guides="1" tooltips="1" connect="1" arrows="1" fold="1" page="1" pageScale="1" pageWidth="827" pageHeight="1169" math="0" shadow="0">
            <root>
                <mxCell id="0"/>
                <mxCell id="1" parent="0"/>
                <mxCell id="2" value="" style="swimlane;startSize=0;" vertex="1" parent="1">
                    <mxGeometry x="290" y="220" width="330" height="390" as="geometry"/>
                </mxCell>
                <mxCell id="16" value="&lt;div style=&quot;color: rgb(225 , 228 , 232) ; background-color: rgb(36 , 41 , 46) ; font-family: &amp;#34;consolas&amp;#34; , &amp;#34;courier new&amp;#34; , monospace ; font-size: 14px ; line-height: 19px&quot;&gt;Vue.&lt;span style=&quot;color: rgb(179 , 146 , 240)&quot;&gt;createApp&lt;/span&gt;(&lt;span style=&quot;color: rgb(121 , 184 , 255)&quot;&gt;App&lt;/span&gt;);&lt;br&gt;&lt;/div&gt;" style="text;html=1;align=center;verticalAlign=middle;resizable=0;points=[];autosize=1;strokeColor=none;fillColor=none;" vertex="1" parent="2">
                    <mxGeometry x="20" y="25" width="160" height="20" as="geometry"/>
                </mxCell>
                <mxCell id="17" value="&lt;div style=&quot;color: rgb(225 , 228 , 232) ; background-color: rgb(36 , 41 , 46) ; font-family: &amp;#34;consolas&amp;#34; , &amp;#34;courier new&amp;#34; , monospace ; font-size: 14px ; line-height: 19px&quot;&gt;&lt;div&gt;&lt;span style=&quot;color: #79b8ff&quot;&gt;app&lt;/span&gt;.&lt;span style=&quot;color: #b392f0&quot;&gt;component&lt;/span&gt;(&lt;span style=&quot;color: #9ecbff&quot;&gt;&quot;component-a&quot;&lt;/span&gt;, {});&lt;/div&gt;&lt;/div&gt;" style="text;html=1;align=center;verticalAlign=middle;resizable=0;points=[];autosize=1;strokeColor=none;fillColor=none;" vertex="1" parent="2">
                    <mxGeometry x="10" y="100" width="270" height="20" as="geometry"/>
                </mxCell>
                <mxCell id="18" value="&lt;div style=&quot;color: rgb(225 , 228 , 232) ; background-color: rgb(36 , 41 , 46) ; font-family: &amp;#34;consolas&amp;#34; , &amp;#34;courier new&amp;#34; , monospace ; font-size: 14px ; line-height: 19px&quot;&gt;&lt;div&gt;&lt;span style=&quot;color: #79b8ff&quot;&gt;app&lt;/span&gt;.&lt;span style=&quot;color: #b392f0&quot;&gt;component&lt;/span&gt;(&lt;span style=&quot;color: #9ecbff&quot;&gt;&quot;component-a&quot;&lt;/span&gt;, {});&lt;/div&gt;&lt;/div&gt;" style="text;html=1;align=center;verticalAlign=middle;resizable=0;points=[];autosize=1;strokeColor=none;fillColor=none;" vertex="1" parent="2">
                    <mxGeometry x="10" y="175" width="270" height="20" as="geometry"/>
                </mxCell>
                <mxCell id="19" value="&lt;div style=&quot;color: rgb(225 , 228 , 232) ; background-color: rgb(36 , 41 , 46) ; font-family: &amp;#34;consolas&amp;#34; , &amp;#34;courier new&amp;#34; , monospace ; font-size: 14px ; line-height: 19px&quot;&gt;&lt;div&gt;&lt;span style=&quot;color: #79b8ff&quot;&gt;app&lt;/span&gt;.&lt;span style=&quot;color: #b392f0&quot;&gt;component&lt;/span&gt;(&lt;span style=&quot;color: #9ecbff&quot;&gt;&quot;component-a&quot;&lt;/span&gt;, {});&lt;/div&gt;&lt;/div&gt;" style="text;html=1;align=center;verticalAlign=middle;resizable=0;points=[];autosize=1;strokeColor=none;fillColor=none;" vertex="1" parent="2">
                    <mxGeometry x="10" y="245" width="270" height="20" as="geometry"/>
                </mxCell>
                <mxCell id="25" value="&lt;div style=&quot;color: rgb(225 , 228 , 232) ; background-color: rgb(36 , 41 , 46) ; font-family: &amp;#34;consolas&amp;#34; , &amp;#34;courier new&amp;#34; , monospace ; font-size: 14px ; line-height: 19px&quot;&gt;&lt;span style=&quot;color: #79b8ff&quot;&gt;app&lt;/span&gt;.&lt;span style=&quot;color: #b392f0&quot;&gt;mount&lt;/span&gt;(&lt;span style=&quot;color: #9ecbff&quot;&gt;&quot;#app&quot;&lt;/span&gt;);&lt;/div&gt;" style="text;html=1;align=center;verticalAlign=middle;resizable=0;points=[];autosize=1;strokeColor=none;fillColor=none;" vertex="1" parent="2">
                    <mxGeometry x="20" y="330" width="150" height="20" as="geometry"/>
                </mxCell>
                <mxCell id="28" value="v" style="curved=1;endArrow=classic;html=1;entryX=1;entryY=0.75;entryDx=0;entryDy=0;" edge="1" parent="2" target="9">
                    <mxGeometry width="50" height="50" relative="1" as="geometry">
                        <mxPoint x="280" y="110" as="sourcePoint"/>
                        <mxPoint x="450" y="-70" as="targetPoint"/>
                        <Array as="points">
                            <mxPoint x="330" y="110"/>
                            <mxPoint x="400" y="90"/>
                            <mxPoint x="400" y="20"/>
                        </Array>
                    </mxGeometry>
                </mxCell>
                <mxCell id="21" style="edgeStyle=none;html=1;exitX=1;exitY=0.5;exitDx=0;exitDy=0;entryX=-0.011;entryY=0.8;entryDx=0;entryDy=0;entryPerimeter=0;" edge="1" parent="1" source="4" target="17">
                    <mxGeometry relative="1" as="geometry"/>
                </mxCell>
                <mxCell id="4" value="&lt;div style=&quot;color: rgb(225 , 228 , 232) ; background-color: rgb(36 , 41 , 46) ; font-family: &amp;#34;consolas&amp;#34; , &amp;#34;courier new&amp;#34; , monospace ; font-size: 14px ; line-height: 19px&quot;&gt;&lt;span style=&quot;color: #6a737d&quot;&gt;component-a&lt;/span&gt;&lt;/div&gt;" style="rounded=0;whiteSpace=wrap;html=1;" vertex="1" parent="1">
                    <mxGeometry x="50" y="280" width="120" height="60" as="geometry"/>
                </mxCell>
                <mxCell id="22" style="edgeStyle=none;html=1;exitX=1;exitY=0.5;exitDx=0;exitDy=0;entryX=0;entryY=0.7;entryDx=0;entryDy=0;entryPerimeter=0;" edge="1" parent="1" source="5" target="18">
                    <mxGeometry relative="1" as="geometry"/>
                </mxCell>
                <mxCell id="5" value="&lt;div style=&quot;color: rgb(225 , 228 , 232) ; background-color: rgb(36 , 41 , 46) ; font-family: &amp;#34;consolas&amp;#34; , &amp;#34;courier new&amp;#34; , monospace ; font-size: 14px ; line-height: 19px&quot;&gt;&lt;span style=&quot;color: #6a737d&quot;&gt;component-b&lt;/span&gt;&lt;/div&gt;" style="rounded=0;whiteSpace=wrap;html=1;" vertex="1" parent="1">
                    <mxGeometry x="50" y="380" width="120" height="60" as="geometry"/>
                </mxCell>
                <mxCell id="23" style="edgeStyle=none;html=1;exitX=1;exitY=0.5;exitDx=0;exitDy=0;entryX=-0.015;entryY=0.85;entryDx=0;entryDy=0;entryPerimeter=0;" edge="1" parent="1" source="6" target="19">
                    <mxGeometry relative="1" as="geometry"/>
                </mxCell>
                <mxCell id="6" value="&lt;div style=&quot;color: rgb(225 , 228 , 232) ; background-color: rgb(36 , 41 , 46) ; font-family: &amp;#34;consolas&amp;#34; , &amp;#34;courier new&amp;#34; , monospace ; font-size: 14px ; line-height: 19px&quot;&gt;&lt;span style=&quot;color: #6a737d&quot;&gt;component-c&lt;/span&gt;&lt;/div&gt;" style="rounded=0;whiteSpace=wrap;html=1;" vertex="1" parent="1">
                    <mxGeometry x="50" y="470" width="120" height="60" as="geometry"/>
                </mxCell>
                <mxCell id="9" value="" style="swimlane;startSize=0;" vertex="1" parent="1">
                    <mxGeometry x="220" y="20" width="296" height="150" as="geometry"/>
                </mxCell>
                <mxCell id="14" value="&amp;lt;template&amp;gt;" style="text;html=1;align=center;verticalAlign=middle;resizable=0;points=[];autosize=1;strokeColor=none;fillColor=none;" vertex="1" parent="9">
                    <mxGeometry x="6" y="10" width="80" height="20" as="geometry"/>
                </mxCell>
                <mxCell id="15" value="&amp;lt;/template&amp;gt;" style="text;html=1;align=center;verticalAlign=middle;resizable=0;points=[];autosize=1;strokeColor=none;fillColor=none;" vertex="1" parent="9">
                    <mxGeometry y="120" width="80" height="20" as="geometry"/>
                </mxCell>
                <mxCell id="31" value="&lt;div style=&quot;color: rgb(225 , 228 , 232) ; background-color: rgb(36 , 41 , 46) ; font-family: &amp;#34;consolas&amp;#34; , &amp;#34;courier new&amp;#34; , monospace ; font-size: 14px ; line-height: 19px&quot;&gt;&lt;div&gt;&amp;lt;&lt;span style=&quot;color: #85e89d&quot;&gt;component-a&lt;/span&gt;&amp;gt;&amp;lt;/&lt;span style=&quot;color: #85e89d&quot;&gt;component-a&lt;/span&gt;&amp;gt;&lt;/div&gt;&lt;div&gt;&amp;nbsp;&amp;lt;&lt;span style=&quot;color: #85e89d&quot;&gt;component-b&lt;/span&gt;&amp;gt;&amp;lt;/&lt;span style=&quot;color: #85e89d&quot;&gt;component-b&lt;/span&gt;&amp;gt;&lt;/div&gt;&lt;div&gt;&amp;lt;&lt;span style=&quot;color: rgb(133 , 232 , 157)&quot;&gt;component-c&lt;/span&gt;&amp;gt;&amp;lt;/&lt;span style=&quot;color: rgb(133 , 232 , 157)&quot;&gt;component-c&lt;/span&gt;&amp;gt;&lt;br&gt;&lt;/div&gt;&lt;/div&gt;" style="text;html=1;align=center;verticalAlign=middle;resizable=0;points=[];autosize=1;strokeColor=none;fillColor=none;" vertex="1" parent="9">
                    <mxGeometry x="6" y="40" width="230" height="60" as="geometry"/>
                </mxCell>
                <mxCell id="24" value="注册组件" style="text;html=1;align=center;verticalAlign=middle;resizable=0;points=[];autosize=1;strokeColor=none;fillColor=none;" vertex="1" parent="1">
                    <mxGeometry x="210" y="380" width="60" height="20" as="geometry"/>
                </mxCell>
                <mxCell id="29" value="" style="curved=1;endArrow=classic;html=1;entryX=1;entryY=0.75;entryDx=0;entryDy=0;" edge="1" parent="1" target="9">
                    <mxGeometry width="50" height="50" relative="1" as="geometry">
                        <mxPoint x="570" y="407.5" as="sourcePoint"/>
                        <mxPoint x="514" y="212.5" as="targetPoint"/>
                        <Array as="points">
                            <mxPoint x="620" y="407.5"/>
                            <mxPoint x="690" y="317.5"/>
                        </Array>
                    </mxGeometry>
                </mxCell>
                <mxCell id="30" value="" style="curved=1;endArrow=classic;html=1;" edge="1" parent="1">
                    <mxGeometry width="50" height="50" relative="1" as="geometry">
                        <mxPoint x="570" y="475" as="sourcePoint"/>
                        <mxPoint x="520" y="140" as="targetPoint"/>
                        <Array as="points">
                            <mxPoint x="620" y="475"/>
                            <mxPoint x="690" y="385"/>
                        </Array>
                    </mxGeometry>
                </mxCell>
                <mxCell id="33" value="" style="endArrow=classic;html=1;entryX=0.699;entryY=0.993;entryDx=0;entryDy=0;entryPerimeter=0;" edge="1" parent="1" target="9">
                    <mxGeometry width="50" height="50" relative="1" as="geometry">
                        <mxPoint x="430" y="250" as="sourcePoint"/>
                        <mxPoint x="480" y="200" as="targetPoint"/>
                        <Array as="points">
                            <mxPoint x="427" y="200"/>
                        </Array>
                    </mxGeometry>
                </mxCell>
                <mxCell id="34" value="把组件放到主要template里面" style="text;html=1;align=center;verticalAlign=middle;resizable=0;points=[];autosize=1;strokeColor=none;fillColor=none;" vertex="1" parent="1">
                    <mxGeometry x="590" y="150" width="170" height="20" as="geometry"/>
                </mxCell>
            </root>
        </mxGraphModel>
    </diagram>
</mxfile>